<svg t="1579159441825" class="icon" viewBox="0 0 1024 1024" version="1.1" xmlns="http://www.w3.org/2000/svg" p-id="3271" width="128" height="128"><path d="M969.578667 727.018667v231.552A43.946667 43.946667 0 0 1 925.482667 1002.666667H76.458667a44.074667 44.074667 0 0 1-44.096-44.096V727.018667c0-24.256 19.84-44.096 44.096-44.096h226.709333c8.597333 101.653333 93.952 181.930667 197.802667 181.930666s189.418667-80.277333 197.802666-181.930666h226.709334a44.074667 44.074667 0 0 1 44.096 44.096z" fill="#ffffff" p-id="3272" data-spm-anchor-id="a313x.7781069.0.i12" class="selected"></path><path d="M514.048 396.224m-209.813333 0a209.813333 209.813333 0 1 0 419.626666 0 209.813333 209.813333 0 1 0-419.626666 0Z" fill="#f6a308" p-id="3273" data-spm-anchor-id="a313x.7781069.0.i10" class="selected"></path><path d="M936.512 617.472H886.186667V65.386667A65.472 65.472 0 0 0 820.8 0H291.434667a65.472 65.472 0 0 0-65.386667 65.386667v28.352H157.397333A85.824 85.824 0 0 0 71.68 179.456v439.616A87.488 87.488 0 0 0 0 704.938667v231.573333A87.594667 87.594667 0 0 0 87.488 1024H936.533333c48.234667 0 87.466667-39.253333 87.466667-87.488V704.938667c0-48.234667-39.253333-87.466667-87.488-87.466667zM268.714667 65.386667c0-12.522667 10.197333-22.72 22.72-22.72h529.344c12.544 0 22.72 10.197333 22.72 22.72v552.085333h-155.370667a21.333333 21.333333 0 0 0-21.312 22.058667l0.256 4.8c0 85.525333-69.568 155.093333-155.093333 155.093333s-155.093333-69.568-155.008-156.821333l0.170666-3.050667a21.376 21.376 0 0 0-21.312-22.058667h-67.136V65.386667zM157.397333 136.405333h68.650667v481.066667H114.346667V179.456a43.093333 43.093333 0 0 1 43.050666-43.050667zM981.333333 936.512A44.842667 44.842667 0 0 1 936.533333 981.333333H87.488A44.864 44.864 0 0 1 42.666667 936.512V704.938667c0-24.704 20.096-44.8 44.821333-44.8h227.370667c8.085333 101.674667 93.418667 181.909333 197.141333 181.909333 103.701333 0 189.013333-80.256 197.12-181.909333h227.392c24.704 0 44.821333 20.074667 44.821333 44.8v231.573333z" p-id="3274" fill="#f6a308" data-spm-anchor-id="a313x.7781069.0.i9" class=""></path><path d="M379.690667 268.714667h352.832a21.333333 21.333333 0 1 0 0-42.666667H379.690667a21.333333 21.333333 0 0 0 0 42.666667zM379.690667 467.178667h264.618666a21.333333 21.333333 0 1 0 0-42.666667H379.690667a21.333333 21.333333 0 0 0 0 42.666667z" p-id="3275" fill="#ffffff" data-spm-anchor-id="a313x.7781069.0.i14" class="selected"></path></svg>